<?xml version="1.0" standalone="no"?><!DOCTYPE svg PUBLIC "-//W3C//DTD SVG 1.1//EN" "http://www.w3.org/Graphics/SVG/1.1/DTD/svg11.dtd"><svg t="1677666471825" class="icon" viewBox="0 0 1024 1024" version="1.1" xmlns="http://www.w3.org/2000/svg" p-id="7261" xmlns:xlink="http://www.w3.org/1999/xlink" width="56" height="56"><path d="M143 284.6c1.2-11.8-3.4-23.6-12.2-31.6L40.6 144.2V128h280.4l216.8 475.4L728.4 128h267.4v16.2l-77.2 74c-6.6 5-10 13.4-8.6 21.6v544c-1.4 8.2 2 16.6 8.6 21.6l75.4 74v16.2H614.6v-16.2l78.2-75.8c7.6-7.6 7.6-10 7.6-21.6V342.4L483 894.2h-29.4L200.8 342.4v369.8c-2.2 15.6 3 31.2 14 42.4l101.6 123.2v16.2h-288v-16L130 754.6c10.8-11.2 15.8-27 13-42.4V284.6z" p-id="7262" fill="#ffffff"></path></svg>